<svg width="591" height="101" viewBox="0 0 591 101" fill="none" xmlns="http://www.w3.org/2000/svg">
<path d="M36.0075 100.512C29.2662 100.512 23.2502 98.9762 17.9595 95.9042C12.6689 92.7469 8.48755 88.5229 5.41555 83.2322C2.42888 77.8562 0.935547 71.7976 0.935547 65.0562C0.935547 58.1442 2.38621 52.0002 5.28755 46.6242C8.27421 41.2482 12.3275 37.0669 17.4475 34.0802C22.5675 31.0082 28.4982 29.4722 35.2395 29.4722C40.2742 29.4722 44.9249 30.4536 49.1915 32.4162C53.4582 34.3789 57.2555 37.3229 60.5835 41.2482C61.6929 42.4429 62.0769 43.7229 61.7355 45.0882C61.4795 46.4536 60.6262 47.6482 59.1755 48.6722C58.1515 49.4402 56.9569 49.6962 55.5915 49.4402C54.2262 49.1842 53.0315 48.4589 52.0075 47.2642C47.4849 42.4002 41.8955 39.9682 35.2395 39.9682C30.7169 39.9682 26.7062 41.0349 23.2075 43.1682C19.7942 45.3016 17.1062 48.2456 15.1435 52.0002C13.2662 55.6696 12.3275 60.0216 12.3275 65.0562C12.3275 69.8349 13.3089 74.1016 15.2715 77.8562C17.3195 81.6109 20.1355 84.5976 23.7195 86.8162C27.3035 88.9496 31.3995 90.0162 36.0075 90.0162C39.1649 90.0162 41.9809 89.6322 44.4555 88.8642C46.9302 88.0962 49.1489 86.8589 51.1115 85.1522C52.3062 84.1282 53.5435 83.5736 54.8235 83.4882C56.1889 83.4029 57.3835 83.7869 58.4076 84.6402C59.6875 85.7496 60.4129 86.9869 60.5835 88.3522C60.7542 89.7176 60.2849 90.9122 59.1755 91.9362C53.0315 97.6536 45.3089 100.512 36.0075 100.512Z" fill="url(#paint0_linear_125_21)"/>
<path d="M112.889 100.512C106.062 100.512 99.9605 99.0189 94.5845 96.0322C89.2939 92.9602 85.1126 88.7789 82.0406 83.4882C79.0539 78.1122 77.5605 71.9682 77.5605 65.0562C77.5605 58.0589 79.0539 51.9149 82.0406 46.6242C85.1126 41.2482 89.2939 37.0669 94.5845 34.0802C99.9605 31.0082 106.062 29.4722 112.889 29.4722C119.715 29.4722 125.774 31.0082 131.065 34.0802C136.441 37.0669 140.622 41.2482 143.609 46.6242C146.681 51.9149 148.259 58.0589 148.345 65.0562C148.345 71.9682 146.809 78.1122 143.737 83.4882C140.665 88.7789 136.483 92.9602 131.193 96.0322C125.902 99.0189 119.801 100.512 112.889 100.512ZM112.889 90.0162C117.582 90.0162 121.721 88.9496 125.305 86.8162C128.889 84.6829 131.705 81.7389 133.753 77.9842C135.801 74.2296 136.825 69.9202 136.825 65.0562C136.825 60.1922 135.801 55.8829 133.753 52.1282C131.705 48.2882 128.889 45.3016 125.305 43.1682C121.721 41.0349 117.582 39.9682 112.889 39.9682C108.281 39.9682 104.142 41.0349 100.473 43.1682C96.8885 45.3016 94.0726 48.2882 92.0246 52.1282C89.9766 55.8829 88.9525 60.1922 88.9525 65.0562C88.9525 69.9202 89.9766 74.2296 92.0246 77.9842C94.0726 81.7389 96.8885 84.6829 100.473 86.8162C104.142 88.9496 108.281 90.0162 112.889 90.0162Z" fill="url(#paint1_linear_125_21)"/>
<path d="M173.021 56.4802C173.191 51.2749 174.514 46.6242 176.989 42.5282C179.549 38.4322 182.919 35.1896 187.101 32.8002C191.282 30.4109 195.89 29.2162 200.925 29.2162C205.618 29.2162 209.117 29.9416 211.421 31.3922C213.81 32.8429 214.706 34.6776 214.109 36.8962C213.853 38.1762 213.341 39.1149 212.573 39.7122C211.805 40.2242 210.909 40.5229 209.885 40.6082C208.861 40.6082 207.751 40.5229 206.557 40.3522C201.351 39.4989 196.701 39.6269 192.605 40.7362C188.509 41.8456 185.266 43.7656 182.877 46.4962C180.487 49.2269 179.293 52.5549 179.293 56.4802H173.021ZM173.405 100C171.613 100 170.205 99.5309 169.181 98.5922C168.157 97.5682 167.645 96.1176 167.645 94.2402V35.7442C167.645 33.9522 168.157 32.5442 169.181 31.5202C170.205 30.4962 171.613 29.9842 173.405 29.9842C175.367 29.9842 176.818 30.4962 177.757 31.5202C178.781 32.4589 179.293 33.8669 179.293 35.7442V94.2402C179.293 96.0322 178.781 97.4402 177.757 98.4642C176.818 99.4882 175.367 100 173.405 100Z" fill="url(#paint2_linear_125_21)"/>
<path d="M253.094 100.512C246.694 100.512 240.976 98.9762 235.942 95.9042C230.907 92.8322 226.939 88.6082 224.038 83.2322C221.136 77.8562 219.686 71.7976 219.686 65.0562C219.686 58.2296 221.222 52.1709 224.294 46.8802C227.451 41.5042 231.675 37.2802 236.966 34.2082C242.342 31.0509 248.358 29.4722 255.014 29.4722C261.755 29.4722 267.771 31.0509 273.062 34.2082C278.352 37.2802 282.534 41.5042 285.606 46.8802C288.763 52.2562 290.384 58.3149 290.47 65.0562L285.862 66.2082C285.862 72.6936 284.411 78.5389 281.51 83.7442C278.608 88.9496 274.683 93.0456 269.734 96.0322C264.87 99.0189 259.323 100.512 253.094 100.512ZM255.014 90.0162C259.622 90.0162 263.718 88.9496 267.302 86.8162C270.886 84.5976 273.702 81.6109 275.75 77.8562C277.883 74.0162 278.95 69.7496 278.95 65.0562C278.95 60.2776 277.883 56.0109 275.75 52.2562C273.702 48.4162 270.886 45.4296 267.302 43.2962C263.718 41.0776 259.622 39.9682 255.014 39.9682C250.576 39.9682 246.523 41.0776 242.854 43.2962C239.184 45.4296 236.283 48.4162 234.15 52.2562C232.102 56.0109 231.078 60.2776 231.078 65.0562C231.078 69.7496 232.102 74.0162 234.15 77.8562C236.283 81.6109 239.184 84.5976 242.854 86.8162C246.523 88.9496 250.576 90.0162 255.014 90.0162ZM284.454 100.128C282.747 100.128 281.339 99.5736 280.23 98.4642C279.12 97.3549 278.566 95.9469 278.566 94.2402V73.7602L280.998 61.4722L290.47 65.0562V94.2402C290.47 95.9469 289.872 97.3549 288.678 98.4642C287.568 99.5736 286.16 100.128 284.454 100.128Z" fill="url(#paint3_linear_125_21)"/>
<path d="M317.706 100C316.255 100 314.932 99.4882 313.738 98.4642C312.628 97.3549 312.074 95.9042 312.074 94.1122V30.2402C312.074 24.1816 313.226 18.8909 315.53 14.3682C317.834 9.84556 321.076 6.34689 325.258 3.87222C329.524 1.31223 334.516 0.0322266 340.234 0.0322266C341.94 0.0322266 343.348 0.544225 344.458 1.56822C345.567 2.59222 346.122 3.87223 346.122 5.40823C346.122 6.85889 345.567 8.13889 344.458 9.24822C343.348 10.2722 341.94 10.7842 340.234 10.7842C336.82 10.7842 333.876 11.5522 331.402 13.0882C329.012 14.6242 327.135 16.8002 325.77 19.6162C324.49 22.3469 323.85 25.5896 323.85 29.3442V94.1122C323.85 95.9042 323.295 97.3549 322.186 98.4642C321.162 99.4882 319.668 100 317.706 100ZM305.546 42.6562C303.924 42.6562 302.602 42.1869 301.578 41.2482C300.639 40.3096 300.17 39.1149 300.17 37.6642C300.17 36.1282 300.639 34.8909 301.578 33.9522C302.602 33.0136 303.924 32.5442 305.546 32.5442H337.802C339.423 32.5442 340.746 33.0136 341.77 33.9522C342.794 34.8909 343.306 36.1282 343.306 37.6642C343.306 39.1149 342.794 40.3096 341.77 41.2482C340.746 42.1869 339.423 42.6562 337.802 42.6562H305.546Z" fill="white"/>
<path d="M386.014 100.512C379.187 100.512 373.086 99.0189 367.71 96.0322C362.419 92.9602 358.238 88.7789 355.166 83.4882C352.179 78.1122 350.686 71.9682 350.686 65.0562C350.686 58.0589 352.179 51.9149 355.166 46.6242C358.238 41.2482 362.419 37.0669 367.71 34.0802C373.086 31.0082 379.187 29.4722 386.014 29.4722C392.84 29.4722 398.899 31.0082 404.19 34.0802C409.566 37.0669 413.747 41.2482 416.734 46.6242C419.806 51.9149 421.384 58.0589 421.47 65.0562C421.47 71.9682 419.934 78.1122 416.862 83.4882C413.79 88.7789 409.608 92.9602 404.318 96.0322C399.027 99.0189 392.926 100.512 386.014 100.512ZM386.014 90.0162C390.707 90.0162 394.846 88.9496 398.43 86.8162C402.014 84.6829 404.83 81.7389 406.878 77.9842C408.926 74.2296 409.95 69.9202 409.95 65.0562C409.95 60.1922 408.926 55.8829 406.878 52.1282C404.83 48.2882 402.014 45.3016 398.43 43.1682C394.846 41.0349 390.707 39.9682 386.014 39.9682C381.406 39.9682 377.267 41.0349 373.598 43.1682C370.014 45.3016 367.198 48.2882 365.15 52.1282C363.102 55.8829 362.078 60.1922 362.078 65.0562C362.078 69.9202 363.102 74.2296 365.15 77.9842C367.198 81.7389 370.014 84.6829 373.598 86.8162C377.267 88.9496 381.406 90.0162 386.014 90.0162Z" fill="white"/>
<path d="M500.29 100.128C498.583 100.128 497.132 99.5736 495.938 98.4642C494.828 97.2696 494.274 95.8616 494.274 94.2402V61.9842C494.274 56.9496 493.335 52.8536 491.458 49.6962C489.58 46.4536 487.063 44.0642 483.906 42.5282C480.748 40.9069 477.122 40.0962 473.026 40.0962C469.186 40.0962 465.73 40.8642 462.658 42.4002C459.586 43.9362 457.111 45.9842 455.234 48.5442C453.442 51.1042 452.546 54.0482 452.546 57.3762H444.866C444.951 52.0002 446.316 47.2216 448.962 43.0402C451.607 38.7736 455.191 35.4456 459.714 33.0562C464.236 30.5816 469.314 29.3442 474.946 29.3442C480.919 29.3442 486.252 30.6242 490.946 33.1842C495.639 35.6589 499.351 39.3282 502.082 44.1922C504.812 49.0562 506.178 54.9869 506.178 61.9842V94.2402C506.178 95.8616 505.58 97.2696 504.386 98.4642C503.276 99.5736 501.911 100.128 500.29 100.128ZM446.658 100.128C444.951 100.128 443.543 99.5736 442.434 98.4642C441.324 97.3549 440.77 95.9469 440.77 94.2402V35.8722C440.77 34.0802 441.324 32.6722 442.434 31.6482C443.543 30.5389 444.951 29.9842 446.658 29.9842C448.45 29.9842 449.858 30.5389 450.882 31.6482C451.991 32.6722 452.546 34.0802 452.546 35.8722V94.2402C452.546 95.9469 451.991 97.3549 450.882 98.4642C449.858 99.5736 448.45 100.128 446.658 100.128Z" fill="white"/>
<path d="M560.282 100.512C553.199 100.512 546.927 99.0189 541.466 96.0322C536.09 92.9602 531.866 88.7789 528.794 83.4882C525.722 78.1122 524.186 71.9682 524.186 65.0562C524.186 58.0589 525.636 51.9149 528.538 46.6242C531.439 41.2482 535.45 37.0669 540.57 34.0802C545.69 31.0082 551.62 29.4722 558.362 29.4722C564.932 29.4722 570.607 30.9656 575.386 33.9522C580.164 36.8536 583.834 40.9069 586.394 46.1122C588.954 51.2322 590.234 57.1629 590.234 63.9042C590.234 65.3549 589.722 66.5922 588.698 67.6162C587.759 68.5549 586.479 69.0242 584.858 69.0242H532.25V59.5522H584.986L579.738 63.2642C579.652 58.7416 578.756 54.6882 577.05 51.1042C575.343 47.5202 572.911 44.7042 569.754 42.6562C566.596 40.6082 562.799 39.5842 558.362 39.5842C553.498 39.5842 549.274 40.6936 545.69 42.9122C542.191 45.1309 539.503 48.1602 537.626 52.0002C535.748 55.8402 534.81 60.1922 534.81 65.0562C534.81 69.9202 535.876 74.2722 538.01 78.1122C540.228 81.8669 543.215 84.8536 546.97 87.0722C550.81 89.2909 555.247 90.4002 560.282 90.4002C563.012 90.4002 565.828 89.8882 568.73 88.8642C571.716 87.8402 574.063 86.6456 575.77 85.2802C576.964 84.3416 578.244 83.8722 579.61 83.8722C580.975 83.7869 582.17 84.1709 583.194 85.0242C584.474 86.2189 585.156 87.5416 585.242 88.9922C585.327 90.3576 584.73 91.5522 583.45 92.5762C580.548 94.8802 576.922 96.8002 572.57 98.3362C568.303 99.7869 564.207 100.512 560.282 100.512Z" fill="white"/>
<defs>
<linearGradient id="paint0_linear_125_21" x1="295.585" y1="0.0322266" x2="295.585" y2="100.512" gradientUnits="userSpaceOnUse">
<stop stop-color="#5AA4FF"/>
<stop offset="1" stop-color="#4174B1"/>
</linearGradient>
<linearGradient id="paint1_linear_125_21" x1="295.585" y1="0.0322266" x2="295.585" y2="100.512" gradientUnits="userSpaceOnUse">
<stop stop-color="#5AA4FF"/>
<stop offset="1" stop-color="#4174B1"/>
</linearGradient>
<linearGradient id="paint2_linear_125_21" x1="295.585" y1="0.0322266" x2="295.585" y2="100.512" gradientUnits="userSpaceOnUse">
<stop stop-color="#5AA4FF"/>
<stop offset="1" stop-color="#4174B1"/>
</linearGradient>
<linearGradient id="paint3_linear_125_21" x1="295.585" y1="0.0322266" x2="295.585" y2="100.512" gradientUnits="userSpaceOnUse">
<stop stop-color="#5AA4FF"/>
<stop offset="1" stop-color="#4174B1"/>
</linearGradient>
</defs>
</svg>
